<?xml version="1.0" encoding="UTF-8"?>
<svg width="72px" height="72px" viewBox="0 0 72 72" version="1.1" xmlns="http://www.w3.org/2000/svg" xmlns:xlink="http://www.w3.org/1999/xlink">
    <title>light-on-orange</title>
    <g id="Brand-Package" stroke="none" stroke-width="1" fill="none" fill-rule="evenodd">
        <g id="Favicons-(production)" transform="translate(-31.000000, -68.000000)">
            <g id="light-on-orange" transform="translate(31.000000, 68.000000)">
                <rect id="Rectangle" fill="#FF6629" x="0" y="0" width="72" height="72" rx="12"></rect>
                <g id="Logo---light" transform="translate(20.000000, 15.000000)" fill="#FFFFFF" fill-rule="nonzero">
                    <path d="M32,26.4519851 C32,35.0258317 24.8225951,42 15.9988951,42 C7.17961467,42 0,35.0258317 0,26.4519851 C0,22.5547821 1.54464471,18.7329464 4.23617154,15.9668986 C6.17415924,13.9783588 8.68448312,12.3481899 12.1317589,10.8374064 C12.5604585,10.6486658 12.9935778,10.4672258 13.4244873,10.2836385 C14.2067537,9.95640231 15.0133278,9.61520916 15.7801257,9.24996716 C16.1513708,9.07325101 16.4740004,8.90877401 16.7634832,8.75116812 C16.1447414,8.62942078 15.5525171,8.38356417 15.022167,8.02089883 C14.0299703,7.3430217 13.3714522,6.33318447 13.1659416,5.17798049 C12.9582211,4.01547596 13.2366549,2.84352367 13.948208,1.87684554 C14.6553415,0.91252936 15.7116221,0.270510791 16.9203784,0.0675985673 C18.1379739,-0.137460875 19.3644085,0.127291264 20.369864,0.817192823 C21.3598508,1.49249329 22.0183689,2.50233053 22.2238796,3.65731978 C22.2901733,4.00839014 22.3056419,4.38801851 22.2702852,4.7747327 C21.8879912,9.03996911 18.4849113,12.0950327 15.2055797,14.5201022 C14.4299427,15.095557 13.596851,15.6254907 12.7969063,16.1363142 C11.3296043,17.0692809 9.94406464,17.950285 8.79939231,19.1172987 C6.73986603,21.2235061 5.55541744,23.8967941 5.55541744,26.4519851 C5.55541744,32.0497858 10.2423866,36.6018907 15.9988951,36.6018907 C21.762033,36.6018907 26.4490021,32.0497858 26.4490021,26.4519851 C26.4490021,21.897733 23.3376148,17.978843 18.9776949,16.7257259 L23.7243284,12.8373264 C28.7714937,15.5275775 32,20.7047379 32,26.4519851 Z" id="Path"></path>
                </g>
            </g>
        </g>
    </g>
</svg>